<svg width="120" height="100" viewBox="0 0 120 100" fill="none" xmlns="http://www.w3.org/2000/svg">
<path d="M117.315 47.721C115.779 49.1331 113.709 49.9999 111.428 49.9999H68.7487L77.1417 16.6657L51.4285 13.1064L25.7129 16.6657V86.5241L51.4285 83.334H68.5706L116.484 86.5241C116.484 86.5241 119.999 71.6925 119.999 66.6658V47.721H117.315Z" fill="#5B4C47"/>
<path d="M117.316 47.721C115.78 49.1331 113.71 49.9999 111.43 49.9999H68.75L77.1429 16.6657L51.4297 13.1064V83.334H68.5718L116.485 86.5241C116.485 86.5241 120.001 71.6925 120.001 66.6658V47.721H117.316Z" fill="#3E322C"/>
<path d="M17.1426 0H85.7135V16.6659H17.1426V0Z" fill="#F2F2F2"/>
<path d="M51.4297 0H85.714V16.6659H51.4297V0Z" fill="#E7E7F2"/>
<path d="M17.1445 83.333H51.4302V99.9996H17.1445V83.333Z" fill="#F2F2F2"/>
<path d="M102.856 83.3336H68.5703L85.7132 100H102.856C112.324 100 119.999 92.5384 119.999 83.3336V66.667C119.999 75.8718 112.324 83.3336 102.856 83.3336Z" fill="#E7E7F2"/>
<path d="M68.5713 58.3334C73.3051 58.3334 77.1426 54.6025 77.1426 50.0002C77.1426 45.3979 73.3051 41.667 68.5713 41.667C63.8375 41.667 60 45.3979 60 50.0002C60 54.6025 63.8375 58.3334 68.5713 58.3334Z" fill="#FFBB10"/>
<path d="M8.57031 46.8105V58.3338C8.57031 62.9362 12.408 66.667 17.1416 66.667H42.8558V50.0004L8.57031 46.8105Z" fill="#FFBB10"/>
<path d="M34.2857 33.334H0V41.6672C0 46.2696 3.83765 50.0004 8.57131 50.0004H42.857V41.6672C42.857 37.0648 39.0196 33.334 34.2857 33.334Z" fill="#FFE54D"/>
</svg>
